G75*
G70*
%OFA0B0*%
%FSLAX24Y24*%
%IPPOS*%
%LPD*%
%AMOC8*
5,1,8,0,0,1.08239X$1,22.5*
%
%ADD10C,0.0060*%
%ADD11R,0.0709X0.0709*%
%ADD12OC8,0.0665*%
%ADD13O,0.1689X0.0921*%
%ADD14O,0.0665X0.1220*%
%ADD15O,0.0921X0.1689*%
%ADD16OC8,0.0756*%
%ADD17C,0.0756*%
%ADD18R,0.0835X0.0756*%
%ADD19C,0.0523*%
%ADD20C,0.2039*%
D10*
X000364Y030151D02*
X000791Y030151D01*
X001009Y030151D02*
X001009Y030791D01*
X001009Y030471D02*
X001436Y030471D01*
X001436Y030791D02*
X001436Y030151D01*
X000364Y030151D02*
X000364Y030791D01*
D11*
X010834Y024260D03*
X010834Y022882D03*
X013334Y022932D03*
X013334Y024310D03*
X018334Y019060D03*
X018334Y017682D03*
X020334Y017682D03*
X020334Y019060D03*
X022334Y019060D03*
X022334Y017682D03*
X024334Y017682D03*
X024334Y019060D03*
D12*
X038084Y024621D03*
X039084Y024621D03*
X039084Y025621D03*
X038084Y025621D03*
X038084Y026621D03*
X039084Y026621D03*
X039084Y027621D03*
X038084Y027621D03*
X038084Y028621D03*
X039084Y028621D03*
X005084Y028621D03*
X004084Y028621D03*
X004084Y027621D03*
X004084Y026621D03*
X005084Y026621D03*
X005084Y027621D03*
X005084Y025621D03*
X004084Y025621D03*
X004084Y024621D03*
X005084Y024621D03*
D13*
X004334Y021111D03*
X004334Y019131D03*
X007634Y016121D03*
X010584Y016121D03*
X017134Y016121D03*
X020084Y016121D03*
X027134Y016121D03*
X030084Y016121D03*
X036634Y016121D03*
X039584Y016121D03*
X038834Y019131D03*
X038834Y021111D03*
X039584Y010211D03*
X039584Y008251D03*
X039584Y006281D03*
X036634Y006281D03*
X036634Y008251D03*
X036634Y010211D03*
X030084Y010211D03*
X030084Y008251D03*
X030084Y006281D03*
X027134Y006281D03*
X027134Y008251D03*
X027134Y010211D03*
X020084Y010211D03*
X020084Y008251D03*
X020084Y006281D03*
X017134Y006281D03*
X017134Y008251D03*
X017134Y010211D03*
X010584Y010211D03*
X010584Y008251D03*
X010584Y006281D03*
X007634Y006281D03*
X007634Y008251D03*
X007634Y010211D03*
D14*
X017334Y020621D03*
X018334Y020621D03*
X019334Y020621D03*
X020334Y020621D03*
X021334Y020621D03*
X022334Y020621D03*
X023334Y020621D03*
X024334Y020621D03*
X025334Y020621D03*
X025334Y023621D03*
X024334Y023621D03*
X023334Y023621D03*
X022334Y023621D03*
X021334Y023621D03*
X020334Y023621D03*
X019334Y023621D03*
X018334Y023621D03*
X017334Y023621D03*
X028334Y027621D03*
X029334Y027621D03*
D15*
X004364Y002621D03*
X006334Y002621D03*
X008304Y002621D03*
X013864Y002621D03*
X015834Y002621D03*
X017804Y002621D03*
X023864Y002621D03*
X025834Y002621D03*
X027804Y002621D03*
X033364Y002621D03*
X035334Y002621D03*
X037304Y002621D03*
D16*
X008334Y021121D03*
X008834Y025871D03*
D17*
X008834Y024871D03*
X008334Y020121D03*
D18*
X010834Y020070D03*
X010834Y021172D03*
D19*
X010834Y022171D03*
X014334Y024121D03*
X014834Y026121D03*
X016334Y019121D03*
X021084Y018371D03*
X023334Y018121D03*
X025334Y019121D03*
X028834Y021621D03*
X031084Y022871D03*
X032834Y021121D03*
X033584Y022871D03*
X035334Y026121D03*
X035584Y027121D03*
X027334Y024621D03*
X026334Y024621D03*
X032334Y018121D03*
X034334Y018121D03*
D20*
X030584Y029621D03*
X011084Y029621D03*
X011084Y002621D03*
X030584Y002621D03*
M02*
