%
M48
M72
T01C0.0354
T02C0.0512
T03C0.0276
T04C0.1299
%
T01
X833Y2012
X833Y2112
X508Y2462
X408Y2462
X408Y2562
X508Y2562
X508Y2662
X408Y2662
X408Y2762
X408Y2862
X508Y2862
X508Y2762
X883Y2587
X883Y2487
X1733Y2362
X1833Y2362
X1933Y2362
X2033Y2362
X2133Y2362
X2233Y2362
X2333Y2362
X2433Y2362
X2533Y2362
X2533Y2062
X2433Y2062
X2333Y2062
X2233Y2062
X2133Y2062
X2033Y2062
X1933Y2062
X1833Y2062
X1733Y2062
X2833Y2762
X2933Y2762
X3808Y2762
X3908Y2762
X3908Y2662
X3808Y2662
X3808Y2562
X3908Y2562
X3908Y2462
X3808Y2462
X3808Y2862
X3908Y2862
T02
X436Y262
X633Y262
X830Y262
X763Y628
X763Y825
X763Y1021
X1058Y1021
X1058Y825
X1058Y628
X1386Y262
X1583Y262
X1780Y262
X1713Y628
X1713Y825
X1713Y1021
X2008Y1021
X2008Y825
X2008Y628
X2386Y262
X2583Y262
X2780Y262
X2713Y628
X2713Y825
X2713Y1021
X3008Y1021
X3008Y825
X3008Y628
X3336Y262
X3533Y262
X3730Y262
X3663Y628
X3663Y825
X3663Y1021
X3958Y1021
X3958Y825
X3958Y628
X3958Y1612
X3663Y1612
X3883Y1913
X3883Y2111
X3008Y1612
X2713Y1612
X2008Y1612
X1713Y1612
X1058Y1612
X763Y1612
X433Y1913
X433Y2111
T03
X1083Y2217
X1433Y2412
X1483Y2612
X1633Y1912
X2108Y1837
X2333Y1812
X2533Y1912
X2883Y2162
X3108Y2287
X3283Y2112
X3358Y2287
X3533Y2612
X3558Y2712
X2733Y2462
X2633Y2462
X3233Y1812
X3433Y1812
T04
X3058Y2962
X1108Y2962
X1108Y262
X3058Y262
M30
