G75*
G70*
%OFA0B0*%
%FSLAX24Y24*%
%IPPOS*%
%LPD*%
%AMOC8*
5,1,8,0,0,1.08239X$1,22.5*
%
%ADD10C,0.0060*%
%ADD11R,0.0591X0.0591*%
%ADD12OC8,0.0554*%
%ADD13O,0.1535X0.0768*%
%ADD14O,0.0554X0.1109*%
%ADD15O,0.0768X0.1535*%
%ADD16OC8,0.0630*%
%ADD17C,0.0630*%
%ADD18R,0.0709X0.0630*%
%ADD19C,0.0160*%
%ADD20C,0.0240*%
%ADD21C,0.0436*%
%ADD22C,0.0700*%
%ADD23C,0.0320*%
%ADD24C,0.0500*%
%ADD25C,0.1699*%
D10*
X000364Y030151D02*
X000791Y030151D01*
X001009Y030151D02*
X001009Y030791D01*
X001009Y030471D02*
X001436Y030471D01*
X001436Y030791D02*
X001436Y030151D01*
X000364Y030151D02*
X000364Y030791D01*
D11*
X010834Y024260D03*
X010834Y022882D03*
X013334Y022932D03*
X013334Y024310D03*
X018334Y019060D03*
X018334Y017682D03*
X020334Y017682D03*
X020334Y019060D03*
X022334Y019060D03*
X022334Y017682D03*
X024334Y017682D03*
X024334Y019060D03*
D12*
X038084Y024621D03*
X039084Y024621D03*
X039084Y025621D03*
X038084Y025621D03*
X038084Y026621D03*
X039084Y026621D03*
X039084Y027621D03*
X038084Y027621D03*
X038084Y028621D03*
X039084Y028621D03*
X005084Y028621D03*
X004084Y028621D03*
X004084Y027621D03*
X004084Y026621D03*
X005084Y026621D03*
X005084Y027621D03*
X005084Y025621D03*
X004084Y025621D03*
X004084Y024621D03*
X005084Y024621D03*
D13*
X004334Y021111D03*
X004334Y019131D03*
X007634Y016121D03*
X010584Y016121D03*
X017134Y016121D03*
X020084Y016121D03*
X027134Y016121D03*
X030084Y016121D03*
X036634Y016121D03*
X039584Y016121D03*
X038834Y019131D03*
X038834Y021111D03*
X039584Y010211D03*
X039584Y008251D03*
X039584Y006281D03*
X036634Y006281D03*
X036634Y008251D03*
X036634Y010211D03*
X030084Y010211D03*
X030084Y008251D03*
X030084Y006281D03*
X027134Y006281D03*
X027134Y008251D03*
X027134Y010211D03*
X020084Y010211D03*
X020084Y008251D03*
X020084Y006281D03*
X017134Y006281D03*
X017134Y008251D03*
X017134Y010211D03*
X010584Y010211D03*
X010584Y008251D03*
X010584Y006281D03*
X007634Y006281D03*
X007634Y008251D03*
X007634Y010211D03*
D14*
X017334Y020621D03*
X018334Y020621D03*
X019334Y020621D03*
X020334Y020621D03*
X021334Y020621D03*
X022334Y020621D03*
X023334Y020621D03*
X024334Y020621D03*
X025334Y020621D03*
X025334Y023621D03*
X024334Y023621D03*
X023334Y023621D03*
X022334Y023621D03*
X021334Y023621D03*
X020334Y023621D03*
X019334Y023621D03*
X018334Y023621D03*
X017334Y023621D03*
X028334Y027621D03*
X029334Y027621D03*
D15*
X004364Y002621D03*
X006334Y002621D03*
X008304Y002621D03*
X013864Y002621D03*
X015834Y002621D03*
X017804Y002621D03*
X023864Y002621D03*
X025834Y002621D03*
X027804Y002621D03*
X033364Y002621D03*
X035334Y002621D03*
X037304Y002621D03*
D16*
X008334Y021121D03*
X008834Y025871D03*
D17*
X008834Y024871D03*
X008334Y020121D03*
D18*
X010834Y020070D03*
X010834Y021172D03*
D19*
X008386Y021172D01*
X008334Y021121D01*
X008334Y020121D02*
X008386Y020070D01*
X010834Y020070D01*
X010834Y022171D02*
X010834Y022882D01*
X010834Y023621D01*
X010834Y024260D02*
X010834Y025121D01*
X013334Y024310D02*
X014145Y024310D01*
X014334Y024121D01*
X013334Y022932D02*
X013334Y017121D01*
X016334Y019121D02*
X018334Y019121D01*
X018334Y019060D01*
X018334Y017682D02*
X018334Y017121D01*
X020334Y017121D02*
X020334Y017682D01*
X021084Y018371D02*
X021084Y018871D01*
X020834Y019121D01*
X020334Y019121D01*
X020334Y019060D01*
X022334Y019060D02*
X022895Y019060D01*
X023334Y018621D01*
X023334Y018121D01*
X024334Y017682D02*
X024334Y017121D01*
X022334Y017121D02*
X022334Y017682D01*
X024334Y019060D02*
X025273Y019060D01*
X025334Y019121D01*
X028834Y021621D02*
X026334Y024121D01*
X026334Y024621D01*
X027334Y024621D02*
X029334Y024621D01*
X031084Y022871D01*
X033584Y022871D01*
X035334Y023121D02*
X033334Y021121D01*
X032834Y021121D01*
X035334Y023121D02*
X035334Y024621D01*
X035334Y026121D02*
X037334Y028121D01*
X038584Y028121D01*
X039084Y027621D01*
X035584Y027121D02*
X029834Y027121D01*
X029334Y027621D01*
X028334Y027621D02*
X027334Y027621D01*
X026834Y028121D01*
X006834Y028121D01*
X006334Y028621D01*
X005084Y028621D01*
X005084Y027621D02*
X024834Y027621D01*
X026334Y026121D01*
X035334Y026121D01*
X014834Y026121D02*
X014834Y025621D01*
D20*
X039084Y025621D01*
X038084Y025621D01*
X038084Y024621D02*
X039084Y024621D01*
X038084Y024621D02*
X035334Y024621D01*
X033834Y024621D01*
X033334Y025121D01*
X010834Y025121D01*
X008834Y025121D01*
X008834Y024871D01*
X008834Y025121D02*
X007834Y025121D01*
X007334Y024621D01*
X005084Y024621D01*
X004084Y024621D01*
X004084Y025621D02*
X005084Y025621D01*
X008834Y025621D01*
X008834Y025871D01*
X008834Y025621D02*
X014834Y025621D01*
D21*
X014834Y026121D03*
X014334Y024121D03*
X010834Y022171D03*
X016334Y019121D03*
X021084Y018371D03*
X023334Y018121D03*
X025334Y019121D03*
X028834Y021621D03*
X031084Y022871D03*
X032834Y021121D03*
X033584Y022871D03*
X035334Y026121D03*
X035584Y027121D03*
X027334Y024621D03*
X026334Y024621D03*
X032334Y018121D03*
X034334Y018121D03*
D22*
X036634Y010211D02*
X039524Y010211D01*
X039534Y010221D01*
X039544Y010211D01*
X039584Y010211D01*
X039584Y008251D02*
X036704Y008251D01*
X036684Y008271D01*
X036664Y008251D01*
X036634Y008251D01*
X036554Y008251D01*
X036534Y008271D01*
X036484Y008221D01*
X034584Y008221D01*
X033834Y007471D01*
X033834Y005621D01*
X035334Y004121D01*
X035334Y002621D01*
X036634Y006281D02*
X039524Y006281D01*
X039534Y006271D01*
X039544Y006281D01*
X039584Y006281D01*
X030084Y006271D02*
X030074Y006281D01*
X027134Y006281D01*
X027184Y008221D02*
X025034Y008221D01*
X024334Y007521D01*
X024334Y005621D01*
X025834Y004121D01*
X025834Y002621D01*
X030084Y006271D02*
X030084Y006281D01*
X030084Y008251D02*
X027104Y008251D01*
X027084Y008271D01*
X027104Y008251D02*
X027134Y008251D01*
X027154Y008251D01*
X027184Y008221D01*
X027134Y010211D02*
X030074Y010211D01*
X030084Y010221D01*
X030084Y010211D01*
X020134Y010221D02*
X020124Y010211D01*
X017134Y010211D01*
X017134Y008271D02*
X015034Y008271D01*
X014334Y007571D01*
X014334Y005621D01*
X015834Y004121D01*
X015834Y002621D01*
X017134Y006281D02*
X020074Y006281D01*
X020084Y006271D01*
X020084Y006281D01*
X020084Y008251D02*
X017164Y008251D01*
X017134Y008221D01*
X017134Y008251D01*
X017134Y008271D01*
X020084Y010211D02*
X020124Y010211D01*
X010584Y010211D02*
X010544Y010211D01*
X010534Y010221D01*
X010524Y010211D01*
X007634Y010211D01*
X007634Y008271D02*
X007654Y008251D01*
X010584Y008251D01*
X010574Y006281D02*
X010584Y006271D01*
X010584Y006281D01*
X010574Y006281D02*
X007634Y006281D01*
X007634Y008221D02*
X005434Y008221D01*
X004834Y007621D01*
X004834Y005621D01*
X006334Y004121D01*
X006334Y002621D01*
X007634Y008221D02*
X007634Y008251D01*
X007634Y008271D01*
D23*
X007634Y016121D02*
X007634Y017071D01*
X007584Y017121D01*
X008334Y017121D02*
X008334Y020121D01*
X017084Y017121D02*
X017134Y017071D01*
X017134Y016121D01*
X027134Y016121D02*
X027134Y017071D01*
X027084Y017121D01*
X032334Y018121D02*
X034334Y018121D01*
X036584Y017121D02*
X036634Y017071D01*
X036634Y016121D01*
D24*
X036584Y017121D02*
X036834Y017121D01*
X038834Y019121D01*
X038834Y019131D01*
X036584Y017121D02*
X027084Y017121D01*
X026334Y017121D01*
X026334Y019621D01*
X025334Y020621D01*
X024334Y017121D02*
X022334Y017121D01*
X020334Y017121D01*
X018334Y017121D01*
X017084Y017121D01*
X013334Y017121D01*
X008334Y017121D01*
X007584Y017121D01*
X006334Y017121D01*
X004334Y019121D01*
X004334Y019131D01*
X024334Y017121D02*
X026334Y017121D01*
D25*
X030584Y029621D03*
X011084Y029621D03*
X011084Y002621D03*
X030584Y002621D03*
M02*
