G75*
G70*
%OFA0B0*%
%FSLAX24Y24*%
%IPPOS*%
%LPD*%
%AMOC8*
5,1,8,0,0,1.08239X$1,22.5*
%
%ADD10C,0.0060*%
%ADD11R,0.0880X0.0340*%
%ADD12R,0.0867X0.0710*%
%ADD13R,0.0710X0.0867*%
%ADD14OC8,0.0611*%
%ADD15O,0.1615X0.0848*%
%ADD16O,0.0611X0.1143*%
%ADD17O,0.0848X0.1615*%
%ADD18OC8,0.0710*%
%ADD19C,0.0710*%
%ADD20R,0.0710X0.0789*%
%ADD21O,0.0671X0.1261*%
%ADD22C,0.0493*%
%ADD23C,0.1779*%
D10*
X001029Y035151D02*
X001029Y035578D01*
X000816Y035578D02*
X001029Y035364D01*
X001247Y035364D02*
X001674Y035364D01*
X001674Y035258D02*
X001674Y035471D01*
X001567Y035578D01*
X001353Y035578D01*
X001247Y035471D01*
X001247Y035364D01*
X001353Y035151D02*
X001567Y035151D01*
X001674Y035258D01*
X001890Y035151D02*
X002211Y035364D01*
X001890Y035578D01*
X002211Y035791D02*
X002211Y035151D01*
X002428Y035578D02*
X002534Y035578D01*
X002748Y035364D01*
X002748Y035151D02*
X002748Y035578D01*
X002965Y035471D02*
X002965Y035151D01*
X003286Y035151D01*
X003392Y035258D01*
X003286Y035364D01*
X002965Y035364D01*
X002965Y035471D02*
X003072Y035578D01*
X003286Y035578D01*
X003610Y035471D02*
X003610Y035151D01*
X003823Y035151D02*
X003823Y035471D01*
X003717Y035578D01*
X003610Y035471D01*
X003823Y035471D02*
X003930Y035578D01*
X004037Y035578D01*
X004037Y035151D01*
X004899Y035151D02*
X004899Y035471D01*
X005006Y035578D01*
X005326Y035578D01*
X005326Y035151D01*
X005543Y035258D02*
X005543Y035471D01*
X005650Y035578D01*
X005864Y035578D01*
X005970Y035471D01*
X005970Y035258D01*
X005864Y035151D01*
X005650Y035151D01*
X005543Y035258D01*
X006187Y035151D02*
X006400Y035151D01*
X006293Y035151D02*
X006293Y035578D01*
X006400Y035578D01*
X006616Y035578D02*
X006830Y035578D01*
X006723Y035685D02*
X006723Y035258D01*
X006616Y035151D01*
X007047Y035151D02*
X007047Y035471D01*
X007154Y035578D01*
X007368Y035578D01*
X007368Y035364D02*
X007047Y035364D01*
X007047Y035151D02*
X007368Y035151D01*
X007474Y035258D01*
X007368Y035364D01*
X007690Y035151D02*
X007797Y035258D01*
X007797Y035685D01*
X007904Y035578D02*
X007690Y035578D01*
X008121Y035471D02*
X008121Y035151D01*
X008121Y035471D02*
X008228Y035578D01*
X008549Y035578D01*
X008549Y035151D01*
X008766Y035364D02*
X009193Y035364D01*
X009193Y035258D02*
X009193Y035471D01*
X009086Y035578D01*
X008873Y035578D01*
X008766Y035471D01*
X008766Y035364D01*
X008873Y035151D02*
X009086Y035151D01*
X009193Y035258D01*
X009409Y035151D02*
X009623Y035151D01*
X009516Y035151D02*
X009516Y035578D01*
X009623Y035578D01*
X009840Y035578D02*
X009946Y035578D01*
X010160Y035364D01*
X010160Y035151D02*
X010160Y035578D01*
X010377Y035685D02*
X010484Y035791D01*
X010698Y035791D01*
X010804Y035685D01*
X010804Y035258D01*
X010698Y035151D01*
X010484Y035151D01*
X010377Y035258D01*
X010377Y035685D01*
X009516Y035791D02*
X009516Y035898D01*
X006293Y035898D02*
X006293Y035791D01*
X000816Y035578D02*
X000709Y035578D01*
D11*
X027624Y023871D03*
X027624Y023371D03*
X027624Y022871D03*
X027624Y022371D03*
X027624Y021871D03*
X027624Y021371D03*
X027624Y020871D03*
X027624Y020371D03*
X030044Y020371D03*
X030044Y020871D03*
X030044Y021371D03*
X030044Y021871D03*
X030044Y022371D03*
X030044Y022871D03*
X030044Y023371D03*
X030044Y023871D03*
D12*
X015834Y024570D03*
X015834Y025672D03*
X015084Y019922D03*
X015084Y018820D03*
D13*
X012886Y022171D03*
X011783Y022171D03*
X020033Y017371D03*
X021136Y017371D03*
X024033Y016371D03*
X025136Y016371D03*
X029533Y019121D03*
X030636Y019121D03*
D14*
X038084Y024621D03*
X038084Y025621D03*
X039084Y025621D03*
X039084Y024621D03*
X039084Y026621D03*
X038084Y026621D03*
X038084Y027621D03*
X039084Y027621D03*
X039084Y028621D03*
X038084Y028621D03*
X005084Y028621D03*
X004084Y028621D03*
X004084Y027621D03*
X004084Y026621D03*
X004084Y025621D03*
X004084Y024621D03*
X005084Y024621D03*
X005084Y025621D03*
X005084Y026621D03*
X005084Y027621D03*
D15*
X004334Y021111D03*
X004334Y019131D03*
X007634Y016121D03*
X010584Y016121D03*
X010584Y010211D03*
X010584Y008251D03*
X010584Y006281D03*
X007634Y006281D03*
X007634Y008251D03*
X007634Y010211D03*
X017134Y010211D03*
X017134Y008251D03*
X017134Y006281D03*
X020084Y006281D03*
X020084Y008251D03*
X020084Y010211D03*
X020084Y016121D03*
X017134Y016121D03*
X027134Y016121D03*
X030084Y016121D03*
X030084Y010211D03*
X030084Y008251D03*
X030084Y006281D03*
X027134Y006281D03*
X027134Y008251D03*
X027134Y010211D03*
X036634Y010211D03*
X036634Y008251D03*
X036634Y006281D03*
X039584Y006281D03*
X039584Y008251D03*
X039584Y010211D03*
X039584Y016121D03*
X036634Y016121D03*
X038834Y019131D03*
X038834Y021111D03*
D16*
X029334Y027621D03*
X028334Y027621D03*
X025334Y023621D03*
X024334Y023621D03*
X023334Y023621D03*
X022334Y023621D03*
X021334Y023621D03*
X020334Y023621D03*
X019334Y023621D03*
X018334Y023621D03*
X017334Y023621D03*
X017334Y020621D03*
X018334Y020621D03*
X019334Y020621D03*
X020334Y020621D03*
X021334Y020621D03*
X022334Y020621D03*
X023334Y020621D03*
X024334Y020621D03*
X025334Y020621D03*
D17*
X004364Y002621D03*
X006334Y002621D03*
X008304Y002621D03*
X013864Y002621D03*
X015834Y002621D03*
X017804Y002621D03*
X023864Y002621D03*
X025834Y002621D03*
X027804Y002621D03*
X033364Y002621D03*
X035334Y002621D03*
X037304Y002621D03*
D18*
X008834Y021621D03*
X008834Y025871D03*
D19*
X008834Y024871D03*
X008834Y020621D03*
D20*
X008636Y023371D03*
X007533Y023371D03*
D21*
X008084Y018671D03*
X009084Y018671D03*
X010084Y018671D03*
D22*
X012584Y021171D03*
X010834Y022171D03*
X014334Y024121D03*
X014834Y026121D03*
X016334Y019121D03*
X021084Y018371D03*
X023334Y018121D03*
X025334Y019121D03*
X028834Y021621D03*
X031084Y022871D03*
X032834Y021121D03*
X033584Y022871D03*
X035334Y026121D03*
X035584Y027121D03*
X027334Y024621D03*
X026334Y024621D03*
X032334Y018121D03*
X034334Y018121D03*
D23*
X030584Y029621D03*
X011084Y029621D03*
X011084Y002621D03*
X030584Y002621D03*
M02*
