G75*
G70*
%OFA0B0*%
%FSLAX24Y24*%
%IPPOS*%
%LPD*%
%AMOC8*
5,1,8,0,0,1.08239X$1,22.5*
%
%ADD10C,0.0060*%
%ADD11R,0.0800X0.0260*%
%ADD12R,0.0787X0.0630*%
%ADD13R,0.0630X0.0787*%
%ADD14OC8,0.0554*%
%ADD15O,0.1535X0.0768*%
%ADD16O,0.0554X0.1109*%
%ADD17O,0.0768X0.1535*%
%ADD18OC8,0.0630*%
%ADD19C,0.0630*%
%ADD20R,0.0630X0.0709*%
%ADD21C,0.0100*%
%ADD22C,0.0500*%
%ADD23C,0.0320*%
%ADD24C,0.0160*%
%ADD25C,0.0240*%
%ADD26C,0.0436*%
%ADD27C,0.0700*%
%ADD28C,0.1699*%
D10*
X000364Y030151D02*
X000791Y030151D01*
X001009Y030151D02*
X001009Y030791D01*
X001009Y030471D02*
X001436Y030471D01*
X001436Y030791D02*
X001436Y030151D01*
X000364Y030151D02*
X000364Y030791D01*
D11*
X027624Y023871D03*
X027624Y023371D03*
X027624Y022871D03*
X027624Y022371D03*
X027624Y021871D03*
X027624Y021371D03*
X027624Y020871D03*
X027624Y020371D03*
X030044Y020371D03*
X030044Y020871D03*
X030044Y021371D03*
X030044Y021871D03*
X030044Y022371D03*
X030044Y022871D03*
X030044Y023371D03*
X030044Y023871D03*
D12*
X015834Y024570D03*
X015834Y025672D03*
X009584Y022172D03*
X009584Y021070D03*
X015084Y019922D03*
X015084Y018820D03*
D13*
X020033Y017371D03*
X021136Y017371D03*
X024033Y016371D03*
X025136Y016371D03*
X029533Y019121D03*
X030636Y019121D03*
D14*
X038084Y024621D03*
X039084Y024621D03*
X039084Y025621D03*
X038084Y025621D03*
X038084Y026621D03*
X039084Y026621D03*
X039084Y027621D03*
X038084Y027621D03*
X038084Y028621D03*
X039084Y028621D03*
X005084Y028621D03*
X004084Y028621D03*
X004084Y027621D03*
X004084Y026621D03*
X005084Y026621D03*
X005084Y027621D03*
X005084Y025621D03*
X004084Y025621D03*
X004084Y024621D03*
X005084Y024621D03*
D15*
X004334Y021111D03*
X004334Y019131D03*
X007634Y016121D03*
X010584Y016121D03*
X017134Y016121D03*
X020084Y016121D03*
X027134Y016121D03*
X030084Y016121D03*
X036634Y016121D03*
X039584Y016121D03*
X038834Y019131D03*
X038834Y021111D03*
X039584Y010211D03*
X039584Y008251D03*
X039584Y006281D03*
X036634Y006281D03*
X036634Y008251D03*
X036634Y010211D03*
X030084Y010211D03*
X030084Y008251D03*
X030084Y006281D03*
X027134Y006281D03*
X027134Y008251D03*
X027134Y010211D03*
X020084Y010211D03*
X020084Y008251D03*
X020084Y006281D03*
X017134Y006281D03*
X017134Y008251D03*
X017134Y010211D03*
X010584Y010211D03*
X010584Y008251D03*
X010584Y006281D03*
X007634Y006281D03*
X007634Y008251D03*
X007634Y010211D03*
D16*
X017334Y020621D03*
X018334Y020621D03*
X019334Y020621D03*
X020334Y020621D03*
X021334Y020621D03*
X022334Y020621D03*
X023334Y020621D03*
X024334Y020621D03*
X025334Y020621D03*
X025334Y023621D03*
X024334Y023621D03*
X023334Y023621D03*
X022334Y023621D03*
X021334Y023621D03*
X020334Y023621D03*
X019334Y023621D03*
X018334Y023621D03*
X017334Y023621D03*
X028334Y027621D03*
X029334Y027621D03*
D17*
X027804Y002621D03*
X025834Y002621D03*
X023864Y002621D03*
X017804Y002621D03*
X015834Y002621D03*
X013864Y002621D03*
X008304Y002621D03*
X006334Y002621D03*
X004364Y002621D03*
X033364Y002621D03*
X035334Y002621D03*
X037304Y002621D03*
D18*
X008334Y021121D03*
X008834Y025871D03*
D19*
X008834Y024871D03*
X008334Y020121D03*
D20*
X008636Y023371D03*
X007533Y023371D03*
D21*
X027624Y023871D02*
X027934Y023921D01*
X028234Y023621D01*
X028234Y023321D01*
X029634Y021921D01*
X029734Y021921D01*
X030044Y021871D01*
D22*
X033334Y019121D02*
X035334Y021121D01*
X038834Y021121D01*
X033334Y019121D02*
X033334Y015621D01*
X032834Y015121D01*
X009334Y015121D01*
X009084Y015371D01*
X009084Y017871D01*
X005844Y021111D01*
X004344Y021111D01*
X004334Y021121D01*
X004334Y021111D01*
D23*
X004334Y021121D02*
X006834Y021121D01*
X006834Y023371D01*
X006834Y024621D01*
X005834Y025621D01*
X005084Y025621D01*
X006834Y021121D02*
X008334Y021121D01*
X010584Y017871D02*
X010584Y016121D01*
X010584Y017871D02*
X013334Y020621D01*
X015084Y020621D01*
X017334Y020621D01*
X019334Y020621D02*
X019334Y017371D01*
X019334Y016621D01*
X019834Y016121D01*
X020084Y016121D01*
X021834Y019121D02*
X023334Y019121D01*
X025334Y017121D01*
X029084Y017121D01*
X030084Y016121D01*
X030584Y018121D02*
X032334Y018121D01*
X030584Y018121D02*
X025334Y018121D01*
X023334Y020121D01*
X023334Y020621D01*
X021334Y020621D02*
X021334Y019621D01*
X021834Y019121D01*
X034334Y018121D02*
X036834Y018121D01*
X038834Y016121D01*
X039584Y016121D01*
X038834Y021111D02*
X038834Y021121D01*
D24*
X035334Y021121D02*
X034584Y021871D01*
X030044Y021871D01*
X030044Y022371D02*
X031584Y022371D01*
X035334Y026121D01*
X035584Y027121D02*
X038834Y027121D01*
X039084Y026871D01*
X039084Y026621D01*
X038084Y026621D02*
X037334Y026621D01*
X033584Y022871D01*
X032834Y021121D02*
X032084Y020371D01*
X030044Y020371D01*
X030044Y020871D02*
X029084Y020871D01*
X028834Y020621D01*
X028834Y020121D01*
X028334Y019621D01*
X025334Y019621D01*
X024834Y020121D01*
X024834Y021121D01*
X024584Y021371D01*
X019834Y021371D01*
X019084Y022121D01*
X018084Y022121D01*
X017334Y022871D01*
X017334Y023621D01*
X015834Y024570D02*
X015834Y024621D01*
X015334Y024121D01*
X014334Y024121D01*
X015283Y025672D02*
X014834Y026121D01*
X015283Y025672D02*
X015834Y025672D01*
X019334Y023621D02*
X019334Y023121D01*
X020584Y021871D01*
X026084Y021871D01*
X027084Y020871D01*
X027624Y020871D01*
X027624Y021871D02*
X026834Y021871D01*
X026334Y022371D01*
X022084Y022371D01*
X021334Y023121D01*
X021334Y023621D01*
X023334Y023621D02*
X023334Y023121D01*
X023584Y022871D01*
X027624Y022871D01*
X027624Y023871D02*
X026584Y023871D01*
X026334Y023621D01*
X025334Y023621D01*
X026334Y024621D02*
X024334Y026621D01*
X005084Y026621D01*
X004334Y027121D02*
X024834Y027121D01*
X027334Y024621D01*
X029334Y026121D02*
X029334Y027621D01*
X030084Y028121D02*
X038584Y028121D01*
X039084Y028621D01*
X038084Y027621D02*
X035334Y027621D01*
X031084Y023371D01*
X030044Y023371D01*
X029584Y023371D01*
X025084Y027871D01*
X006584Y027871D01*
X006334Y028121D01*
X004334Y028121D01*
X004084Y027871D01*
X004084Y027621D01*
X004334Y027121D02*
X004084Y026871D01*
X004084Y026621D01*
X009584Y022172D02*
X010386Y022172D01*
X010834Y022171D01*
X009584Y021070D02*
X008386Y021070D01*
X008334Y021121D01*
X015084Y020621D02*
X015084Y019922D01*
X016033Y018820D02*
X016334Y019121D01*
X016033Y018820D02*
X015084Y018820D01*
X019334Y017371D02*
X020033Y017371D01*
X021136Y017371D02*
X021136Y018320D01*
X021084Y018371D01*
X023334Y018121D02*
X023334Y017121D01*
X024084Y016371D01*
X024033Y016371D01*
X025136Y016371D02*
X025136Y016922D01*
X025334Y017121D01*
X025334Y019121D02*
X029533Y019121D01*
X029584Y019121D01*
X030636Y019121D02*
X030636Y018172D01*
X030584Y018121D01*
X030084Y021371D02*
X030044Y021371D01*
X029084Y021371D01*
X028834Y021621D01*
X030044Y022871D02*
X031084Y022871D01*
X030044Y023871D02*
X030044Y025411D01*
X029334Y026121D01*
X028334Y027621D02*
X028334Y028121D01*
X028834Y028621D01*
X029584Y028621D01*
X030084Y028121D01*
D25*
X008834Y024871D02*
X008834Y024121D01*
X008636Y023922D01*
X008636Y023371D01*
X007533Y023371D02*
X006834Y023371D01*
D26*
X010834Y022171D03*
X014334Y024121D03*
X014834Y026121D03*
X016334Y019121D03*
X021084Y018371D03*
X023334Y018121D03*
X025334Y019121D03*
X028834Y021621D03*
X031084Y022871D03*
X032834Y021121D03*
X033584Y022871D03*
X035334Y026121D03*
X035584Y027121D03*
X027334Y024621D03*
X026334Y024621D03*
X032334Y018121D03*
X034334Y018121D03*
D27*
X004334Y009321D02*
X004334Y002621D01*
X004364Y002621D01*
X008304Y002621D02*
X008304Y005601D01*
X007634Y006271D01*
X007634Y006281D01*
X004334Y009321D02*
X005234Y010221D01*
X007584Y010221D01*
X007594Y010211D01*
X007634Y010211D01*
X010524Y010211D02*
X010534Y010221D01*
X010544Y010211D01*
X013864Y009151D02*
X014934Y010221D01*
X017134Y010221D01*
X017134Y010211D01*
X013864Y009151D02*
X013864Y002621D01*
X017804Y002621D02*
X017804Y005601D01*
X017134Y006271D01*
X017134Y006281D01*
X023864Y009201D02*
X023864Y002621D01*
X027804Y002621D02*
X027804Y005601D01*
X027124Y006281D01*
X027134Y006281D01*
X027124Y006281D02*
X027084Y006321D01*
X023864Y009201D02*
X024884Y010221D01*
X027184Y010221D01*
X027174Y010211D01*
X027134Y010211D01*
X033364Y009201D02*
X034384Y010221D01*
X036534Y010221D01*
X036544Y010211D01*
X036634Y010211D01*
X033364Y009201D02*
X033364Y002621D01*
X037304Y002621D02*
X037304Y005601D01*
X036634Y006271D01*
X036634Y006281D01*
D28*
X030584Y002621D03*
X011084Y002621D03*
X011084Y029621D03*
X030584Y029621D03*
M02*
